<?xml version="1.0"?>
<svg xmlns="http://www.w3.org/2000/svg" height="512px" viewBox="-14 0 511 512" width="512px" class=""><g><path d="m256.824219 363.988281v148.011719h58.070312l16.496094-148.011719zm0 0" data-original="#000000" class="active-path" data-old_color="#000000" fill="#FFFFFF"/><path d="m138.570312 512-16.496093-148.011719h-74.203125l33 148.011719zm0 0" data-original="#000000" class="active-path" data-old_color="#000000" fill="#FFFFFF"/><path d="m168.753906 512h58.070313v-148.011719h-74.566407zm0 0" data-original="#000000" class="active-path" data-old_color="#000000" fill="#FFFFFF"/><path d="m361.574219 363.988281-16.496094 148.011719h57.699219l33-148.011719zm0 0" data-original="#000000" class="active-path" data-old_color="#000000" fill="#FFFFFF"/><path d="m473.089844 333.988281c6.359375-9.992187 10.058594-21.832031 10.058594-34.53125 0-14.765625-5.121094-29.199219-14.417969-40.640625-6.078125-7.484375-13.769531-13.492187-22.386719-17.605468-8.894531 1.042968-14.007812 4.304687-20.617188 8.53125-9.480468 6.0625-21.28125 13.609374-43.25 13.609374s-33.769531-7.546874-43.246093-13.609374c-8.0625-5.15625-13.890625-8.882813-27.085938-8.882813-13.195312 0-19.019531 3.726563-27.082031 8.882813-9.480469 6.0625-21.277344 13.609374-43.246094 13.609374s-33.765625-7.546874-43.246094-13.609374c-8.0625-5.15625-13.886718-8.882813-27.082031-8.882813-13.195312 0-19.019531 3.726563-27.078125 8.882813-9.480468 6.0625-21.277344 13.609374-43.246094 13.609374s-33.765624-7.546874-43.246093-13.609374c-6.609375-4.226563-11.722657-7.488282-20.617188-8.53125-8.613281 4.113281-16.308593 10.121093-22.386719 17.605468-9.292968 11.441406-14.414062 25.878906-14.414062 40.640625 0 12.699219 3.699219 24.539063 10.058594 34.53125zm0 0" data-original="#000000" class="active-path" data-old_color="#000000" fill="#FFFFFF"/><path d="m74.085938 224.472656c8.058593 5.15625 13.886718 8.882813 27.078124 8.882813 13.195313 0 19.019532-3.726563 27.082032-8.882813 9.480468-6.066406 21.277344-13.613281 43.242187-13.613281 21.96875 0 33.769531 7.546875 43.246094 13.613281 8.0625 5.15625 13.886719 8.882813 27.082031 8.882813 13.195313 0 19.019532-3.726563 27.082032-8.882813 9.480468-6.066406 21.277343-13.613281 43.246093-13.613281 21.972657 0 33.769531 7.546875 43.25 13.613281 8.0625 5.15625 13.886719 8.882813 27.082031 8.882813 13.199219 0 19.023438-3.726563 27.085938-8.882813 6.769531-4.332031 14.726562-9.414062 26.71875-11.96875-13.050781-41.09375-39.03125-77.570312-74.394531-103.359375-17.09375-13.609375-36.542969-23.90625-57.199219-30.507812-12.539062 21.746093-36.011719 36.425781-62.863281 36.425781-26.851563 0-50.324219-14.679688-62.863281-36.425781-20.65625 6.601562-40.105469 16.902343-57.199219 30.503906-35.363281 25.792969-61.34375 62.269531-74.394531 103.363281 11.992187 2.554688 19.949218 7.636719 26.71875 11.96875zm0 0" data-original="#000000" class="active-path" data-old_color="#000000" fill="#FFFFFF"/><path d="m284.355469 42.53125c0 23.488281-19.042969 42.53125-42.53125 42.53125s-42.53125-19.042969-42.53125-42.53125 19.042969-42.53125 42.53125-42.53125 42.53125 19.042969 42.53125 42.53125zm0 0" data-original="#000000" class="active-path" data-old_color="#000000" fill="#FFFFFF"/></g> </svg>
