<?xml version="1.0" encoding="utf-8"?>
<!-- Generator: Adobe Illustrator 16.0.0, SVG Export Plug-In . SVG Version: 6.00 Build 0)  -->
<!DOCTYPE svg PUBLIC "-//W3C//DTD SVG 1.1//EN" "http://www.w3.org/Graphics/SVG/1.1/DTD/svg11.dtd">
<svg version="1.1" id="_x31_" xmlns="http://www.w3.org/2000/svg" xmlns:xlink="http://www.w3.org/1999/xlink" x="0px" y="0px"
	 width="384px" height="269.881px" viewBox="0 0 384 269.881" enable-background="new 0 0 384 269.881" xml:space="preserve">
<path fill-rule="evenodd" clip-rule="evenodd" fill="#FFFFFF" d="M13.474,0c65.39,0,130.78,0,196.17,0c0,61.766,0,123.531,0,185.297
	H13.474V0L13.474,0z M225.312,34.001c0,55.897,0,111.793,0,167.69h-84.702c8.026,6.923,13.563,16.613,15.162,27.583h89.332
	c3.173-21.762,21.902-38.542,44.529-38.542c22.623,0,41.352,16.78,44.525,38.542c16.614,0,33.229,0,49.843,0
	c0-9.195,0-18.389,0-27.583h-18.815v-74.46c0-8.742-2.613-17.284-7.505-24.529l-33.35-49.394
	c-8.149-12.072-21.764-19.307-36.329-19.307C267.104,34.001,246.208,34.001,225.312,34.001L225.312,34.001z M0,201.691h56.572
	h25.307c-8.025,6.923-13.563,16.613-15.162,27.583c-22.239,0-44.479,0-66.717,0C0,220.08,0,210.886,0,201.691L0,201.691z
	 M145.338,235.787c0,18.829-15.265,34.095-34.094,34.095c-18.829,0-34.094-15.265-34.094-34.095
	c0-18.831,15.265-34.095,34.094-34.095C130.074,201.692,145.338,216.956,145.338,235.787L145.338,235.787z M128.291,235.787
	c0-9.415-7.632-17.047-17.047-17.047s-17.048,7.632-17.048,17.047s7.633,17.048,17.048,17.048S128.291,245.202,128.291,235.787
	L128.291,235.787z M323.726,235.787c0,18.829-15.266,34.095-34.095,34.095c-18.83,0-34.095-15.265-34.095-34.095
	c0-18.831,15.265-34.095,34.095-34.095C308.46,201.691,323.726,216.956,323.726,235.787L323.726,235.787z M306.679,235.787
	c0,9.415-7.633,17.048-17.048,17.048s-17.047-7.633-17.047-17.048s7.632-17.047,17.047-17.047S306.679,226.372,306.679,235.787
	L306.679,235.787z M328.412,103.966c2.556,3.63-0.041,8.633-4.479,8.633h-73.745c0-16.284,0-32.568,0-48.853
	c15.692,0,31.385,0,47.076,0c1.783,0,3.455,0.868,4.481,2.326L328.412,103.966z"/>
</svg>
