<?xml version="1.0" encoding="utf-8"?>
<!-- Generator: Adobe Illustrator 16.0.0, SVG Export Plug-In . SVG Version: 6.00 Build 0)  -->
<!DOCTYPE svg PUBLIC "-//W3C//DTD SVG 1.1//EN" "http://www.w3.org/Graphics/SVG/1.1/DTD/svg11.dtd">
<svg version="1.1" id="_x31_" xmlns="http://www.w3.org/2000/svg" xmlns:xlink="http://www.w3.org/1999/xlink" x="0px" y="0px"
	 width="384px" height="384px" viewBox="0 0 384 384" enable-background="new 0 0 384 384" xml:space="preserve">
<path fill-rule="evenodd" clip-rule="evenodd" fill="#FFFFFF" d="M384,384c-128,0-256,0-384,0c0-88.367,0-176.734,0-265.102h384
	C384,207.266,384,295.633,384,384L384,384z M48.199,155.851c0,63.733,0,127.466,0,191.2c95.867,0,191.734,0,287.602,0
	c0-63.733,0-127.467,0-191.2C239.934,155.851,144.066,155.851,48.199,155.851L48.199,155.851z M313.301,178.351H70.699v146.2
	h242.602V178.351L313.301,178.351z M96.398,204.05v22.5h191.204v-22.5H96.398L96.398,204.05z M384,0c0,32.133,0,64.266,0,96.398H0
	C0,64.266,0,32.133,0,0C128,0,256,0,384,0L384,0z M91.503,56.15c2.095-2.092,3.302-4.995,3.302-7.951
	c0-2.962-1.207-5.865-3.302-7.957c-2.092-2.092-4.996-3.293-7.958-3.293s-5.856,1.201-7.948,3.293
	c-2.095,2.092-3.302,4.995-3.302,7.957c0,2.956,1.207,5.859,3.302,7.951c2.092,2.098,4.993,3.299,7.948,3.299
	C86.507,59.449,89.411,58.251,91.503,56.15L91.503,56.15z M163.804,56.15c2.092-2.092,3.293-4.995,3.293-7.951
	c0-2.962-1.201-5.865-3.293-7.957c-2.092-2.092-4.995-3.293-7.957-3.293c-2.956,0-5.859,1.201-7.951,3.293s-3.293,4.995-3.293,7.957
	c0,2.965,1.201,5.859,3.293,7.951c2.092,2.098,4.995,3.299,7.951,3.299C158.809,59.449,161.713,58.251,163.804,56.15L163.804,56.15z
	 M236.104,56.15c2.095-2.092,3.302-4.995,3.302-7.951c0-2.962-1.207-5.865-3.302-7.957c-2.093-2.092-4.996-3.293-7.957-3.293
	c-2.962,0-5.857,1.201-7.949,3.293c-2.101,2.092-3.302,4.995-3.302,7.957c0,2.956,1.202,5.859,3.302,7.951
	c2.093,2.098,4.995,3.299,7.949,3.299C231.107,59.449,234.012,58.251,236.104,56.15L236.104,56.15z M308.405,56.15
	c2.092-2.092,3.293-4.995,3.293-7.951c0-2.962-1.201-5.865-3.293-7.957c-2.095-2.092-4.995-3.293-7.957-3.293
	c-2.965,0-5.859,1.201-7.951,3.293c-2.093,2.092-3.3,4.995-3.3,7.957c0,2.965,1.208,5.859,3.3,7.951
	c2.092,2.098,4.995,3.299,7.951,3.299C303.41,59.449,306.311,58.251,308.405,56.15z"/>
</svg>
